<svg width="62" height="62" viewBox="0 0 62 62" fill="none" xmlns="http://www.w3.org/2000/svg">
<path d="M46.5 20.6667C46.5 16.5559 44.867 12.6134 41.9602 9.70659C39.0533 6.79978 35.1109 5.16675 31 5.16675C26.8891 5.16675 22.9467 6.79978 20.0398 9.70659C17.133 12.6134 15.5 16.5559 15.5 20.6667C15.5 38.7501 7.75 43.9167 7.75 43.9167H54.25C54.25 43.9167 46.5 38.7501 46.5 20.6667Z" stroke="black" stroke-width="5" stroke-linecap="round" stroke-linejoin="round"/>
<path d="M35.4691 54.25C35.0149 55.033 34.363 55.6828 33.5787 56.1346C32.7943 56.5864 31.9051 56.8242 30.9999 56.8242C30.0948 56.8242 29.2055 56.5864 28.4212 56.1346C27.6368 55.6828 26.9849 55.033 26.5308 54.25" stroke="black" stroke-width="5" stroke-linecap="round" stroke-linejoin="round"/>
</svg>
