<svg width="65" height="65" viewBox="0 0 65 65" fill="none" xmlns="http://www.w3.org/2000/svg">
<path d="M15.8438 46.3126C18.1459 44.5522 20.7188 43.1641 23.5626 42.1485C26.4063 41.1329 29.3855 40.6251 32.5001 40.6251C35.6147 40.6251 38.5938 41.1329 41.4376 42.1485C44.2813 43.1641 46.8542 44.5522 49.1563 46.3126C50.7362 44.4619 51.9662 42.3629 52.8464 40.0157C53.7266 37.6685 54.1667 35.1633 54.1667 32.5001C54.1667 26.4966 52.0565 21.3846 47.836 17.1641C43.6155 12.9437 38.5036 10.8334 32.5001 10.8334C26.4966 10.8334 21.3846 12.9437 17.1641 17.1641C12.9437 21.3846 10.8334 26.4966 10.8334 32.5001C10.8334 35.1633 11.2735 37.6685 12.1537 40.0157C13.0339 42.3629 14.264 44.4619 15.8438 46.3126ZM32.5001 35.2084C29.8369 35.2084 27.5912 34.2944 25.7631 32.4662C23.935 30.6381 23.0209 28.3924 23.0209 25.7292C23.0209 23.0661 23.935 20.8204 25.7631 18.9923C27.5912 17.1641 29.8369 16.2501 32.5001 16.2501C35.1633 16.2501 37.4089 17.1641 39.2371 18.9923C41.0652 20.8204 41.9792 23.0661 41.9792 25.7292C41.9792 28.3924 41.0652 30.6381 39.2371 32.4662C37.4089 34.2944 35.1633 35.2084 32.5001 35.2084ZM32.5001 59.5834C28.7536 59.5834 25.2327 58.8725 21.9376 57.4506C18.6424 56.0287 15.7761 54.099 13.3386 51.6615C10.9011 49.224 8.97144 46.3577 7.54956 43.0626C6.12769 39.7674 5.41675 36.2466 5.41675 32.5001C5.41675 28.7536 6.12769 25.2327 7.54956 21.9376C8.97144 18.6424 10.9011 15.7761 13.3386 13.3386C15.7761 10.9011 18.6424 8.97144 21.9376 7.54956C25.2327 6.12769 28.7536 5.41675 32.5001 5.41675C36.2466 5.41675 39.7674 6.12769 43.0626 7.54956C46.3577 8.97144 49.224 10.9011 51.6615 13.3386C54.099 15.7761 56.0287 18.6424 57.4506 21.9376C58.8725 25.2327 59.5834 28.7536 59.5834 32.5001C59.5834 36.2466 58.8725 39.7674 57.4506 43.0626C56.0287 46.3577 54.099 49.224 51.6615 51.6615C49.224 54.099 46.3577 56.0287 43.0626 57.4506C39.7674 58.8725 36.2466 59.5834 32.5001 59.5834Z" fill="#1D1B20"/>
</svg>
